HIERARCHY
ROOT SimulationBone
{
	OFFSET 0.000000 0.000000 0.000000
	CHANNELS 6 Xposition Yposition Zposition Zrotation Yrotation Xrotation 
	JOINT Hips
	{
		OFFSET 0.000000 0.000000 0.000000
		CHANNELS 6 Xposition Yposition Zposition Zrotation Yrotation Xrotation 
		JOINT LeftUpLeg
		{
			OFFSET 0.103462 1.857827 10.548504
			CHANNELS 3 Zrotation Yrotation Xrotation
			JOINT LeftLeg
			{
				OFFSET 43.500000 -0.000031 0.000000
				CHANNELS 3 Zrotation Yrotation Xrotation
				JOINT LeftFoot
				{
					OFFSET 42.372192 0.000015 0.000000
					CHANNELS 3 Zrotation Yrotation Xrotation
					JOINT LeftToe
					{
						OFFSET 17.300001 0.000000 -0.000009
						CHANNELS 3 Zrotation Yrotation Xrotation
						End Site
						{
							OFFSET 0.000000 0.000000 0.000000
						}
					}
				}
			}
		}
		JOINT RightUpLeg
		{
			OFFSET 0.103456 1.857828 -10.548508
			CHANNELS 3 Zrotation Yrotation Xrotation
			JOINT RightLeg
			{
				OFFSET 43.500046 -0.000015 0.000008
				CHANNELS 3 Zrotation Yrotation Xrotation
				JOINT RightFoot
				{
					OFFSET 42.372261 -0.000015 0.000002
					CHANNELS 3 Zrotation Yrotation Xrotation
					JOINT RightToe
					{
						OFFSET 17.299999 -0.000003 0.000011
						CHANNELS 3 Zrotation Yrotation Xrotation
						End Site
						{
							OFFSET 0.000000 0.000000 0.000000
						}
					}
				}
			}
		}
		JOINT Spine
		{
			OFFSET 6.901966 -2.603728 -0.000009
			CHANNELS 3 Zrotation Yrotation Xrotation
			JOINT Spine1
			{
				OFFSET 12.588099 0.000000 0.000013
				CHANNELS 3 Zrotation Yrotation Xrotation
				JOINT Spine2
				{
					OFFSET 12.343203 0.000005 -0.000004
					CHANNELS 3 Zrotation Yrotation Xrotation
					JOINT Neck
					{
						OFFSET 25.832897 -0.000004 0.000004
						CHANNELS 3 Zrotation Yrotation Xrotation
						JOINT Head
						{
							OFFSET 11.766615 0.000003 -0.000003
							CHANNELS 3 Zrotation Yrotation Xrotation
							End Site
							{
								OFFSET 0.000000 0.000000 0.000000
							}
						}
					}
					JOINT LeftShoulder
					{
						OFFSET 19.745903 -1.480370 6.000102
						CHANNELS 3 Zrotation Yrotation Xrotation
						JOINT LeftArm
						{
							OFFSET 11.284127 -0.000006 -0.000019
							CHANNELS 3 Zrotation Yrotation Xrotation
							JOINT LeftForeArm
							{
								OFFSET 33.000042 0.000001 0.000035
								CHANNELS 3 Zrotation Yrotation Xrotation
								JOINT LeftHand
								{
									OFFSET 25.200005 0.000015 0.000003
									CHANNELS 3 Zrotation Yrotation Xrotation
									End Site
									{
										OFFSET 0.000000 0.000000 0.000000
									}
								}
							}
						}
					}
					JOINT RightShoulder
					{
						OFFSET 19.746101 -1.480375 -6.000084
						CHANNELS 3 Zrotation Yrotation Xrotation
						JOINT RightArm
						{
							OFFSET 11.284132 -0.000016 -0.000012
							CHANNELS 3 Zrotation Yrotation Xrotation
							JOINT RightForeArm
							{
								OFFSET 33.000092 0.000018 0.000010
								CHANNELS 3 Zrotation Yrotation Xrotation
								JOINT RightHand
								{
									OFFSET 25.199774 0.000137 0.000425
									CHANNELS 3 Zrotation Yrotation Xrotation
									End Site
									{
										OFFSET 0.000000 0.000000 0.000000
									}
								}
							}
						}
					}
				}
			}
		}
	}
}
MOTION
Frames: 6
Frame Time: 0.016667
257.140271 0.000000 374.335567 180.000000 60.217632 180.000000 1.027170 88.254415 -2.125685 98.071953 -5.651307 178.763748 173.510519 3.581294 -175.656597 -31.965624 -3.215397 -4.597481 81.903282 2.589889 -3.184817 21.454553 0.003092 -0.000001 166.586227 5.464870 -177.276502 -80.888955 -1.995609 3.152849 72.510528 -1.060893 3.545544 21.454562 -0.003103 -0.000019 9.362300 -1.331986 0.465451 8.704374 -2.695191 0.829659 8.385946 -2.690002 0.845936 5.758026 -1.351796 -0.387307 -13.577292 4.605340 -2.095323 -169.370207 -75.556678 -12.355457 -17.491095 51.359193 30.299963 -28.589974 -11.278121 0.963148 5.630318 -2.114938 26.935317 -168.710248 73.271450 12.991612 -14.938860 -61.117490 -21.009361 -39.254738 19.346498 -1.749505 5.833202 6.058425 -10.581211 
255.822775 0.000000 372.807498 180.000000 60.389652 180.000000 0.966966 88.642776 -2.084755 97.961432 -5.474852 178.575543 175.777801 3.644389 -175.411443 -29.897950 -3.284316 -4.955793 82.150810 2.884531 -3.016744 21.454553 0.003087 -0.000001 163.876701 5.352903 -176.310282 -79.949057 -1.549327 2.618111 72.864983 -0.785733 3.276664 21.454560 -0.003104 -0.000020 9.304911 -1.271336 0.280667 8.593882 -2.559996 0.466320 8.275466 -2.557004 0.481785 5.712605 -0.536436 -0.033911 -14.190106 4.317517 -1.557802 -170.238789 -75.957088 -11.467806 -18.341482 51.327429 28.789332 -29.919445 -11.709568 1.015986 5.423824 -2.034510 26.288052 -167.109921 73.152893 14.634579 -12.828080 -61.075242 -23.363120 -38.519851 19.012376 -1.708029 6.067492 5.469177 -10.455392 
254.534513 0.000000 371.250469 180.000000 60.517384 180.000000 0.920020 88.933888 -2.028306 97.896243 -5.220638 178.396040 178.029447 3.555051 -175.013842 -27.941469 -3.503932 -5.334630 82.470949 3.203020 -2.814523 21.454554 0.003089 -0.000000 161.423490 5.046062 -175.492122 -78.400382 -0.977666 2.448819 73.263787 -0.915639 2.566060 21.454559 -0.003108 -0.000019 9.272169 -1.174187 0.091906 8.532279 -2.351962 0.097073 8.213901 -2.351206 0.111286 5.375192 0.171633 0.234368 -14.501278 3.835465 -1.039241 -171.383940 -76.243096 -10.298356 -19.193529 51.161095 27.409370 -31.422071 -12.160545 1.074663 5.407068 -2.117124 25.489005 -165.059449 73.176454 16.739258 -10.967915 -60.997398 -25.558793 -37.808488 18.536593 -1.658175 6.089360 5.104168 -10.034001 
253.280935 0.000000 369.663936 180.000000 60.605222 180.000000 0.864207 89.127274 -1.980544 97.748419 -4.951095 178.245081 -179.884998 3.394304 -174.596178 -26.117558 -3.779787 -5.681010 82.860439 3.502756 -2.581919 21.454555 0.003093 0.000000 159.093916 4.694307 -174.920899 -76.212097 -0.242144 2.491531 73.405592 -1.145613 2.030638 21.454560 -0.003109 -0.000017 9.232822 -1.066065 -0.099710 8.456809 -2.122019 -0.277044 8.138485 -2.123528 -0.264217 4.798861 0.957393 0.443972 -14.580613 3.214363 -0.507506 -172.697821 -76.496481 -8.957501 -20.066507 50.864599 26.183314 -33.049037 -12.613721 1.137591 5.392452 -2.315339 24.699687 -163.026984 73.119609 18.825926 -9.147629 -60.740911 -27.794255 -37.132630 18.059903 -1.611026 6.029399 4.906235 -9.505388 
252.057538 0.000000 368.049050 180.000000 60.656963 180.000000 0.773708 89.224133 -1.961683 97.411790 -4.759152 178.137058 -178.077243 3.297140 -174.330518 -24.420529 -3.983225 -5.914571 83.297383 3.726178 -2.326147 21.454554 0.003092 -0.000001 156.794276 4.488837 -174.660388 -73.354831 0.663731 2.574647 73.142896 -1.188941 2.191474 21.454561 -0.003105 -0.000017 9.159056 -0.981622 -0.292682 8.311995 -1.939727 -0.655137 7.993731 -1.943520 -0.643410 4.115615 2.000147 0.632982 -14.609115 2.554590 0.063743 -174.115971 -76.847668 -7.512124 -20.970721 50.494160 25.064368 -34.742001 -13.059905 1.203274 5.145620 -2.571365 24.124948 -161.578594 72.797875 20.316514 -7.160755 -60.174030 -30.240478 -36.517946 17.726728 -1.574726 6.050765 4.807069 -9.083530 
250.857147 0.000000 366.406808 180.000000 60.675855 180.000000 0.665794 89.232422 -1.957046 97.002326 -4.650710 178.090236 -176.393447 3.275895 -174.223714 -22.809891 -4.076507 -6.008600 83.768895 3.849558 -2.068724 21.454553 0.003088 -0.000002 154.743181 4.351895 -174.477114 -69.811786 1.516132 2.887966 72.922138 -1.333142 2.513164 21.454562 -0.003102 -0.000016 9.068633 -0.922320 -0.483165 8.133551 -1.808463 -1.029998 7.815346 -1.814517 -1.019061 3.638864 3.170326 0.810182 -14.931381 1.981971 0.613798 -175.812908 -77.346498 -5.785587 -21.901882 50.118954 24.004759 -36.429004 -13.488174 1.270299 4.658457 -2.907056 23.727387 -160.743228 72.370297 21.180171 -4.959730 -59.454698 -32.725177 -35.978956 17.504031 -1.546908 6.165566 4.706715 -8.837329 
